<svg width="24" height="24" viewBox="0 0 24 24" fill="none" xmlns="http://www.w3.org/2000/svg">
<g clip-path="url(#clip0_208_65)">
<path d="M16.9162 11.4671C13.9108 11.4671 11.4746 13.9035 11.4746 16.9089C11.4746 19.9142 13.9108 22.3506 16.9162 22.3506C19.9216 22.3506 22.3579 19.9142 22.3579 16.9089C22.3545 13.905 19.9202 11.4705 16.9162 11.4671ZM16.9162 21.5672C14.3436 21.5672 12.258 19.4816 12.258 16.9089C12.258 14.3361 14.3436 12.2505 16.9162 12.2505C19.4889 12.2505 21.5745 14.3361 21.5745 16.9089C21.5716 19.4805 19.4878 21.5643 16.9162 21.5672Z" fill="#EA5D26"/>
<path d="M18.8817 16.9418H17.0471V14.3822C17.0471 14.1659 16.8717 13.9905 16.6554 13.9905C16.4391 13.9905 16.2637 14.1659 16.2637 14.3822V17.3302C16.2637 17.5465 16.4194 17.7252 16.6359 17.7252H18.8819C19.0983 17.7252 19.2737 17.5498 19.2737 17.3335C19.2737 17.1171 19.0983 16.9418 18.8819 16.9418H18.8817Z" fill="#EA5D26"/>
<path d="M17.1939 9.83098V2.1554C17.1918 0.965138 16.2268 0.00114761 15.0366 0H2.16272C0.972845 0.00133888 0.00866307 0.965521 0.00732422 2.1554V17.4159C0.00732422 18.6043 0.974184 19.5858 2.16272 19.5858H10.3522C11.4379 22.2561 14.0338 24.0018 16.9162 23.9999C20.8223 23.9999 24.0009 20.8186 24.0009 16.9125C24.0009 13.099 20.9642 9.97635 17.1939 9.83098ZM0.790758 17.4159V2.1554C0.791714 1.39798 1.4053 0.784199 2.16272 0.783434H2.65141V18.8024H2.16272C1.40262 18.7946 0.790567 18.176 0.790758 17.4159ZM3.43485 18.8024V0.783434H15.0366C15.7944 0.784199 16.4087 1.3976 16.4105 2.1554V9.84342C15.7929 9.88817 15.1837 10.014 14.5988 10.2177V2.94285C14.5953 2.72385 14.4176 2.54769 14.1986 2.54616H5.20503C4.98622 2.54769 4.80892 2.72404 4.80586 2.94285V13.9069C4.80949 14.1244 4.98756 14.2986 5.20503 14.2977H10.331C10.0868 14.909 9.93126 15.552 9.8691 16.2073H5.20503C4.98871 16.2073 4.81331 16.3827 4.81331 16.599C4.81331 16.8153 4.98871 16.9907 5.20503 16.9907H9.83333C9.84137 17.6028 9.92629 18.2114 10.0858 18.8024H3.43485ZM10.7 13.5142H5.58929V3.32959H13.8153V10.545C12.4973 11.1924 11.41 12.2289 10.7 13.5142ZM16.9162 23.2092C13.4366 23.2092 10.616 20.3884 10.616 16.9089C10.616 13.4293 13.4366 10.6085 16.9162 10.6085C20.3959 10.6085 23.2165 13.4293 23.2165 16.9089C23.2127 20.3869 20.3942 23.2052 16.9162 23.2092Z" fill="#EA5D26"/>
</g>
<defs>
<clipPath id="clip0_208_65">
<rect width="24" height="24" fill="white"/>
</clipPath>
</defs>
</svg>
