<svg width="24" height="24" viewBox="0 0 24 24" fill="none" xmlns="http://www.w3.org/2000/svg">
<g clip-path="url(#clip0_208_69)">
<path d="M1.72565 21.3246H8.39423V21.4941C8.39132 21.5954 8.43061 21.6933 8.50279 21.7645C8.57498 21.8357 8.67329 21.8738 8.77451 21.8696H13.0141L12.8059 23.2072H12.1438C11.9249 23.2072 11.7475 23.3847 11.7475 23.6036C11.7475 23.8225 11.9249 23.9999 12.1438 23.9999H18.927C19.1458 23.9999 19.3233 23.8225 19.3233 23.6036C19.3233 23.3847 19.1458 23.2072 18.927 23.2072H18.2647L18.0567 21.8696H22.2959C22.5148 21.8696 22.7122 21.713 22.7122 21.4941V11.6494C22.7122 11.4305 22.515 11.2674 22.2959 11.2674H13.5604C13.0474 10.5248 12.203 10.0805 11.3004 10.0783H9.9796V9.44008C10.1247 9.3259 10.2614 9.20127 10.3881 9.06677C11.1146 8.32265 11.5195 7.3227 11.5154 6.28249V5.05823C11.6848 5.101 11.8588 5.12345 12.0333 5.12519C12.9038 5.1279 13.675 4.56493 13.9372 3.73508C14.1997 2.90524 13.8925 2.00108 13.1788 1.50294C12.7385 1.19813 12.1928 1.08666 11.6681 1.19484C11.3432 1.25735 11.0382 1.39727 10.7785 1.60241C9.78627 0.239008 8.02904 -0.330737 6.42547 0.191207C4.8219 0.713151 3.7366 2.20815 3.73718 3.89455V6.28249C3.73466 7.32308 4.14107 8.32304 4.86874 9.06677C5.03788 9.24249 5.22289 9.40195 5.42164 9.54342V10.0783H4.11475C2.57872 10.0783 1.30957 11.3459 1.30957 12.882V20.9095C1.31712 21.1359 1.49923 21.3174 1.72565 21.3246ZM8.04742 20.5319V11.9068L8.39423 11.7051V20.5319H8.04742ZM13.6082 23.2072L14.3661 18.352H16.7047L17.4627 23.2072H13.6082ZM21.9195 21.0769H17.9334L17.4358 17.8856C17.4049 17.6946 17.2379 17.5555 17.0443 17.5593H14.0267C13.8331 17.5553 13.6659 17.6944 13.635 17.8856L13.1374 21.0769H9.18691V12.0601H21.9195V21.0769ZM12.4506 11.2674H9.10447L9.68912 10.871H11.3002C11.7165 10.8747 12.1204 11.0138 12.4506 11.2674ZM13.0186 3.82043C12.6793 4.30734 12.0604 4.46449 11.5154 4.21677V3.95493L13.1602 2.73319C13.2918 3.09722 13.239 3.50227 13.0186 3.82043ZM11.8212 1.97243C12.1123 1.91167 12.4155 1.96295 12.6704 2.11623L11.4318 3.038C11.3745 2.78428 11.2919 2.53715 11.1851 2.30008C11.362 2.13306 11.5826 2.01946 11.8212 1.97263V1.97243ZM10.732 3.78637C10.409 3.4773 10.1685 3.09218 10.0324 2.66623C9.99334 2.50967 9.8631 2.39258 9.70325 2.36994C9.54339 2.34749 9.38586 2.42413 9.30497 2.56385C8.69632 3.6149 7.67179 4.20748 6.26078 4.32457C5.68232 4.36908 5.10058 4.33889 4.52987 4.23496V3.89455C4.53026 3.66793 4.55541 3.44208 4.60496 3.22088C4.87319 3.26481 5.14451 3.28687 5.41622 3.28687C5.64768 3.28687 5.87876 3.27081 6.10789 3.2381C7.01766 3.10805 8.27037 2.65036 9.23123 1.23722C10.1304 1.77852 10.6951 2.73764 10.732 3.78637ZM7.63308 0.792497C7.92279 0.79269 8.21115 0.833525 8.48963 0.913839C7.30234 2.54702 5.66297 2.56676 4.88228 2.46361C5.41642 1.43772 6.47637 0.793658 7.63308 0.79269V0.792497ZM4.52987 6.28249V5.03984C4.93376 5.10526 5.3421 5.13816 5.75141 5.13835C5.92772 5.13835 6.11254 5.13196 6.302 5.11687C7.68979 5.00675 8.79812 4.47533 9.55965 3.56865C9.84781 4.05789 10.2461 4.4732 10.7227 4.78149V6.28268C10.7251 7.11659 10.3996 7.91779 9.81646 8.51405C9.24671 9.11341 8.45596 9.45285 7.62882 9.45285C6.80188 9.45285 6.01093 9.11341 5.44119 8.51405C4.85674 7.91837 4.52948 7.11717 4.52987 6.28249ZM7.63057 10.2455C8.16664 10.2444 8.69652 10.1321 9.18691 9.91558V10.2724L7.66056 11.2167L6.21433 10.2781V9.97441C6.66506 10.1532 7.14559 10.2453 7.63057 10.2455ZM2.10226 12.882C2.11116 11.7744 3.00739 10.8792 4.11475 10.871H5.71193L7.25474 11.9012V20.5319H2.10226V12.882Z" fill="#EA5D26"/>
<path d="M7.13359 6.25055C7.13359 6.03167 6.95612 5.85421 6.73724 5.85421C6.51836 5.85421 6.3409 6.03167 6.3409 6.25055C6.34264 6.32332 6.30471 6.39124 6.242 6.42802C6.17911 6.46498 6.1015 6.46498 6.03861 6.42802C5.9759 6.39124 5.93797 6.32332 5.93971 6.25055C5.93971 6.03167 5.76225 5.85421 5.54337 5.85421C5.32449 5.85421 5.14703 6.03167 5.14703 6.25055C5.14335 6.6078 5.33204 6.93951 5.64071 7.1191C5.94958 7.2987 6.33103 7.2987 6.6399 7.1191C6.94857 6.93951 7.13726 6.6078 7.13359 6.25055Z" fill="#EA5D26"/>
<path d="M9.12521 7.24393C9.67367 7.24335 10.118 6.79901 10.1186 6.25055C10.1186 6.03167 9.94112 5.85421 9.72225 5.85421C9.50337 5.85421 9.3259 6.03167 9.3259 6.25055C9.32745 6.32332 9.28952 6.39124 9.22681 6.42802C9.16411 6.46498 9.08631 6.46498 9.02361 6.42802C8.96091 6.39124 8.92298 6.32332 8.92452 6.25055C8.92452 6.03167 8.74706 5.85421 8.52818 5.85421C8.3093 5.85421 8.13184 6.03167 8.13184 6.25055C8.13242 6.79901 8.57695 7.24335 9.12521 7.24393Z" fill="#EA5D26"/>
<path d="M15.535 15.75C16.3592 15.75 17.0274 15.0818 17.0274 14.2576C17.0274 13.4333 16.3592 12.7651 15.535 12.7651C14.7107 12.7651 14.0425 13.4333 14.0425 14.2576C14.0434 15.0814 14.7111 15.7491 15.535 15.75ZM15.535 13.558C15.9214 13.558 16.2348 13.8711 16.2348 14.2576C16.2348 14.644 15.9214 14.9574 15.535 14.9574C15.1485 14.9574 14.8352 14.644 14.8352 14.2576C14.8357 13.8713 15.1487 13.5583 15.535 13.558Z" fill="#EA5D26"/>
</g>
<defs>
<clipPath id="clip0_208_69">
<rect width="24" height="24" fill="white"/>
</clipPath>
</defs>
</svg>
