<svg width="24" height="24" viewBox="0 0 24 24" fill="none" xmlns="http://www.w3.org/2000/svg">
<g clip-path="url(#clip0_208_74)">
<path d="M22.6275 2.97656H21.8568V2.15625C21.8568 1.96209 21.6994 1.80469 21.5052 1.80469C21.311 1.80469 21.1537 1.96209 21.1537 2.15625V2.97656H18.702V2.15625C18.702 1.96209 18.5446 1.80469 18.3504 1.80469C18.1562 1.80469 17.9988 1.96209 17.9988 2.15625V2.97656H15.5472V2.15625C15.5472 1.96209 15.3898 1.80469 15.1956 1.80469C15.0014 1.80469 14.844 1.96209 14.844 2.15625V2.97656H12.3924V2.15625C12.3924 1.96209 12.235 1.80469 12.0408 1.80469C11.8466 1.80469 11.6893 1.96209 11.6893 2.15625V2.97656H9.23756V2.15625C9.23756 1.96209 9.0802 1.80469 8.886 1.80469C8.6918 1.80469 8.53444 1.96209 8.53444 2.15625V2.97656H6.08278V2.15625C6.08278 1.96209 5.92542 1.80469 5.73122 1.80469C5.53702 1.80469 5.37966 1.96209 5.37966 2.15625V2.97656H2.928V2.15625C2.928 1.96209 2.77064 1.80469 2.57644 1.80469C2.38223 1.80469 2.22487 1.96209 2.22487 2.15625V2.97656H1.37255C0.61575 2.97656 0 3.59231 0 4.34911V20.8228C0 21.5796 0.61575 22.1953 1.37255 22.1953H22.6275C23.3843 22.1953 24 21.5796 24 20.8228V4.34911C24 3.59231 23.3843 2.97656 22.6275 2.97656ZM7.728 20.7891H22.6274C22.8703 20.7891 23.0987 20.7256 23.2968 20.6145V20.8228C23.2968 21.1919 22.9965 21.4922 22.6274 21.4922H1.37255C1.00341 21.4922 0.703125 21.1919 0.703125 20.8228V20.6145C0.901266 20.7256 1.12964 20.7891 1.37255 20.7891H6.11836C6.31256 20.7891 6.46992 20.6317 6.46992 20.4375C6.46992 20.2433 6.31256 20.0859 6.11836 20.0859H1.37255C1.00341 20.0859 0.703125 19.7856 0.703125 19.4165V6.51084H15.4259C15.6201 6.51084 15.7775 6.35344 15.7775 6.15928C15.7775 5.96512 15.6201 5.80772 15.4259 5.80772H0.703125V4.34911C0.703125 3.98002 1.00341 3.67969 1.37255 3.67969H2.22487V4.5232C2.22487 4.71736 2.38223 4.87477 2.57644 4.87477C2.77064 4.87477 2.928 4.71736 2.928 4.5232V3.67969H5.3797V4.5232C5.3797 4.71736 5.53706 4.87477 5.73127 4.87477C5.92547 4.87477 6.08283 4.71736 6.08283 4.5232V3.67969H8.53448V4.5232C8.53448 4.71736 8.69184 4.87477 8.88605 4.87477C9.08025 4.87477 9.23761 4.71736 9.23761 4.5232V3.67969H11.6893V4.5232C11.6893 4.71736 11.8467 4.87477 12.0409 4.87477C12.2351 4.87477 12.3924 4.71736 12.3924 4.5232V3.67969H14.8441V4.5232C14.8441 4.71736 15.0015 4.87477 15.1957 4.87477C15.3899 4.87477 15.5472 4.71736 15.5472 4.5232V3.67969H17.9989V4.5232C17.9989 4.71736 18.1562 4.87477 18.3504 4.87477C18.5446 4.87477 18.702 4.71736 18.702 4.5232V3.67969H21.1537V4.5232C21.1537 4.71736 21.3111 4.87477 21.5053 4.87477C21.6995 4.87477 21.8568 4.71736 21.8568 4.5232V3.67969H22.6275C22.9966 3.67969 23.2969 3.98002 23.2969 4.34911V5.80772H17.0848C16.8906 5.80772 16.7332 5.96512 16.7332 6.15928C16.7332 6.35344 16.8906 6.51084 17.0848 6.51084H23.2969V19.4165C23.2969 19.7857 22.9966 20.0859 22.6275 20.0859H7.728C7.5338 20.0859 7.37644 20.2433 7.37644 20.4375C7.37644 20.6317 7.53384 20.7891 7.728 20.7891Z" fill="#EA5D26"/>
<path d="M2.90283 10.6436H4.58049C4.77469 10.6436 4.93205 10.4862 4.93205 10.292V8.61436C4.93205 8.4202 4.77469 8.26279 4.58049 8.26279H2.90283C2.70863 8.26279 2.55127 8.4202 2.55127 8.61436V10.292C2.55127 10.4862 2.70863 10.6436 2.90283 10.6436ZM3.25439 8.96592H4.22893V9.94045H3.25439V8.96592Z" fill="#EA5D26"/>
<path d="M7.03125 10.6408H8.70891C8.90311 10.6408 9.06047 10.4834 9.06047 10.2893V8.6116C9.06047 8.41744 8.90311 8.26003 8.70891 8.26003H7.03125C6.83705 8.26003 6.67969 8.41744 6.67969 8.6116V10.2893C6.67969 10.4834 6.83705 10.6408 7.03125 10.6408ZM7.38281 8.96316H8.35734V9.93769H7.38281V8.96316Z" fill="#EA5D26"/>
<path d="M11.1597 10.645H12.8374C13.0316 10.645 13.1889 10.4876 13.1889 10.2934V8.61577C13.1889 8.42161 13.0316 8.26421 12.8374 8.26421H11.1597C10.9655 8.26421 10.8081 8.42161 10.8081 8.61577V10.2934C10.8081 10.4876 10.9655 10.645 11.1597 10.645ZM11.5112 8.96733H12.4858V9.94186H11.5112V8.96733Z" fill="#EA5D26"/>
<path d="M15.2881 10.6422H16.9657C17.1599 10.6422 17.3173 10.4848 17.3173 10.2907V8.613C17.3173 8.41884 17.1599 8.26144 16.9657 8.26144H15.2881C15.0939 8.26144 14.9365 8.41884 14.9365 8.613V10.2907C14.9365 10.4848 15.0939 10.6422 15.2881 10.6422ZM15.6396 8.96456H16.6142V9.93909H15.6396V8.96456Z" fill="#EA5D26"/>
<path d="M19.416 10.6422H21.0937C21.2879 10.6422 21.4452 10.4848 21.4452 10.2907V8.613C21.4452 8.41884 21.2879 8.26144 21.0937 8.26144H19.416C19.2218 8.26144 19.0645 8.41884 19.0645 8.613V10.2907C19.0645 10.4848 19.2218 10.6422 19.416 10.6422ZM19.7676 8.96456H20.7421V9.93909H19.7676V8.96456Z" fill="#EA5D26"/>
<path d="M4.58195 12.0504H2.9043C2.71009 12.0504 2.55273 12.2078 2.55273 12.402V14.0796C2.55273 14.2738 2.71009 14.4312 2.9043 14.4312H4.58195C4.77616 14.4312 4.93352 14.2738 4.93352 14.0796V12.402C4.93352 12.2078 4.77616 12.0504 4.58195 12.0504ZM4.23039 13.728H3.25586V12.7535H4.23039V13.728Z" fill="#EA5D26"/>
<path d="M8.71037 12.0476H7.03271C6.83851 12.0476 6.68115 12.205 6.68115 12.3992V14.0768C6.68115 14.271 6.83851 14.4284 7.03271 14.4284H8.71037C8.90457 14.4284 9.06193 14.271 9.06193 14.0768V12.3992C9.06193 12.205 8.90457 12.0476 8.71037 12.0476ZM8.35881 13.7253H7.38428V12.7507H8.35881V13.7253Z" fill="#EA5D26"/>
<path d="M12.8388 12.0518H11.1611C10.9669 12.0518 10.8096 12.2092 10.8096 12.4034V14.081C10.8096 14.2752 10.9669 14.4326 11.1611 14.4326H12.8388C13.033 14.4326 13.1904 14.2752 13.1904 14.081V12.4034C13.1904 12.2092 13.033 12.0518 12.8388 12.0518ZM12.4873 13.7295H11.5127V12.7549H12.4873V13.7295Z" fill="#EA5D26"/>
<path d="M16.9672 12.049H15.2896C15.0953 12.049 14.938 12.2064 14.938 12.4005V14.0782C14.938 14.2724 15.0953 14.4298 15.2896 14.4298H16.9672C17.1614 14.4298 17.3188 14.2724 17.3188 14.0782V12.4005C17.3188 12.2064 17.1614 12.049 16.9672 12.049ZM16.6156 13.7266H15.6411V12.7521H16.6156V13.7266Z" fill="#EA5D26"/>
<path d="M21.0956 12.049H19.418C19.2238 12.049 19.0664 12.2064 19.0664 12.4005V14.0782C19.0664 14.2724 19.2238 14.4298 19.418 14.4298H21.0956C21.2898 14.4298 21.4472 14.2724 21.4472 14.0782V12.4005C21.4472 12.2064 21.2898 12.049 21.0956 12.049ZM20.7441 13.7266H19.7695V12.7521H20.7441V13.7266Z" fill="#EA5D26"/>
<path d="M4.58049 15.845H2.90283C2.70863 15.845 2.55127 16.0024 2.55127 16.1965V17.8742C2.55127 18.0683 2.70863 18.2258 2.90283 18.2258H4.58049C4.77469 18.2258 4.93205 18.0683 4.93205 17.8742V16.1965C4.93205 16.0024 4.77464 15.845 4.58049 15.845ZM4.22893 17.5226H3.25439V16.5481H4.22893V17.5226Z" fill="#EA5D26"/>
<path d="M9.06047 17.8714V16.1937C9.06047 15.9996 8.90311 15.8422 8.70891 15.8422H7.03125C6.83705 15.8422 6.67969 15.9996 6.67969 16.1937V17.8714C6.67969 18.0655 6.83705 18.2229 7.03125 18.2229H8.70891C8.90311 18.2229 9.06047 18.0655 9.06047 17.8714ZM8.35734 17.5198H7.38281V16.5453H8.35734V17.5198Z" fill="#EA5D26"/>
<path d="M11.1597 18.2272H12.8374C13.0316 18.2272 13.1889 18.0697 13.1889 17.8756V16.1979C13.1889 16.0038 13.0316 15.8464 12.8374 15.8464H11.1597C10.9655 15.8464 10.8081 16.0038 10.8081 16.1979V17.8756C10.8081 18.0697 10.9655 18.2272 11.1597 18.2272ZM11.5112 16.5495H12.4858V17.524H11.5112V16.5495Z" fill="#EA5D26"/>
<path d="M15.2881 18.2243H16.9657C17.1599 18.2243 17.3173 18.0669 17.3173 17.8728V16.1951C17.3173 16.001 17.1599 15.8436 16.9657 15.8436H15.2881C15.0939 15.8436 14.9365 16.001 14.9365 16.1951V17.8728C14.9365 18.0669 15.0939 18.2243 15.2881 18.2243ZM15.6396 16.5467H16.6142V17.5212H15.6396V16.5467Z" fill="#EA5D26"/>
<path d="M19.416 18.2243H21.0937C21.2879 18.2243 21.4452 18.0669 21.4452 17.8728V16.1951C21.4452 16.001 21.2879 15.8436 21.0937 15.8436H19.416C19.2218 15.8436 19.0645 16.001 19.0645 16.1951V17.8728C19.0645 18.0669 19.2218 18.2243 19.416 18.2243ZM19.7676 16.5467H20.7421V17.5212H19.7676V16.5467Z" fill="#EA5D26"/>
</g>
<defs>
<clipPath id="clip0_208_74">
<rect width="24" height="24" fill="white"/>
</clipPath>
</defs>
</svg>
