<svg width="24" height="24" viewBox="0 0 24 24" fill="none" xmlns="http://www.w3.org/2000/svg">
<g clip-path="url(#clip0_208_61)">
<path d="M23.5735 4.53885C23.2625 4.17126 22.827 3.94673 22.3472 3.90665L5.44615 2.49543C4.96625 2.45536 4.49965 2.60456 4.13201 2.91548C3.76588 3.22518 3.54167 3.65845 3.50033 4.13596L3.1603 7.32607H1.80257C0.808637 7.32607 0 8.13471 0 9.12864V19.7084C0 20.7023 0.808637 21.511 1.80257 21.511H18.7625C19.7565 21.511 20.5651 20.7023 20.5651 19.7084V17.9922L21.1669 18.0424C21.2177 18.0466 21.2682 18.0487 21.3182 18.0487C22.2449 18.0487 23.0348 17.3358 23.1133 16.3961L23.9936 5.85303C24.0337 5.37317 23.8845 4.90649 23.5735 4.53885ZM1.80257 8.26357H18.7625C19.2395 8.26357 19.6276 8.65164 19.6276 9.12864V10.0927H0.937496V9.12864C0.937496 8.65164 1.32557 8.26357 1.80257 8.26357ZM0.937496 11.0302H19.6276V12.975H0.937496V11.0302ZM18.7625 20.5735H1.80257C1.32557 20.5735 0.937496 20.1854 0.937496 19.7084V13.9125H19.6276V19.7084C19.6276 20.1854 19.2395 20.5735 18.7625 20.5735ZM23.0594 5.77498L22.179 16.318C22.1393 16.7934 21.7202 17.148 21.2449 17.1081L20.5651 17.0514V9.12864C20.5651 8.13471 19.7565 7.32607 18.7625 7.32607H4.10314L4.43309 4.23046C4.43347 4.2269 4.43379 4.22338 4.43408 4.21977C4.47378 3.74441 4.89265 3.38985 5.36815 3.4297L22.2692 4.84091C22.4995 4.86013 22.7086 4.96789 22.8578 5.14433C23.007 5.32077 23.0786 5.54469 23.0594 5.77498Z" fill="#EA5D26"/>
<path d="M17.6656 15.3061H13.1543C12.8954 15.3061 12.6855 15.516 12.6855 15.7749V18.7181C12.6855 18.977 12.8954 19.1869 13.1543 19.1869H17.6656C17.9245 19.1869 18.1344 18.977 18.1344 18.7181V15.7749C18.1344 15.516 17.9245 15.3061 17.6656 15.3061ZM17.1969 18.2494H13.623V16.2436H17.1969V18.2494Z" fill="#EA5D26"/>
</g>
<defs>
<clipPath id="clip0_208_61">
<rect width="24" height="24" fill="white"/>
</clipPath>
</defs>
</svg>
