<svg width="24" height="24" viewBox="0 0 24 24" fill="none" xmlns="http://www.w3.org/2000/svg">
<g clip-path="url(#clip0_208_109)">
<path d="M22.856 3.44531H6.48389C6.28973 3.44531 6.13232 3.60267 6.13232 3.79688C6.13232 3.99108 6.28973 4.14844 6.48389 4.14844H22.856C23.0991 4.14844 23.2968 4.3462 23.2968 4.5892V5.94506C23.2968 6.13927 23.4542 6.29663 23.6483 6.29663C23.8425 6.29663 23.9999 6.13927 23.9999 5.94506V4.5892C23.9999 3.95845 23.4868 3.44531 22.856 3.44531Z" fill="#EA5D26"/>
<path d="M23.6484 7.21186C23.4543 7.21186 23.2969 7.36922 23.2969 7.56342V19.4108C23.2969 19.6538 23.0992 19.8516 22.8561 19.8516H1.14389C0.900844 19.8516 0.703125 19.6538 0.703125 19.4108V4.5892C0.703125 4.34616 0.900844 4.14844 1.14389 4.14844H4.86361C5.05777 4.14844 5.21517 3.99108 5.21517 3.79688C5.21517 3.60267 5.05777 3.44531 4.86361 3.44531H1.14389C0.513141 3.44531 0 3.95845 0 4.5892V19.4108C0 20.0415 0.513141 20.5547 1.14389 20.5547H22.8561C23.4868 20.5547 24 20.0415 24 19.4108V7.56342C24 7.36922 23.8426 7.21186 23.6484 7.21186Z" fill="#EA5D26"/>
<path d="M7.21359 18.9141H19.8295C20.0236 18.9141 20.181 18.7567 20.181 18.5625C20.181 17.5552 21.0005 16.7357 22.0079 16.7357C22.202 16.7357 22.3594 16.5783 22.3594 16.3841V7.61588C22.3594 7.42167 22.202 7.26431 22.0079 7.26431C21.0006 7.26431 20.181 6.44484 20.181 5.4375C20.181 5.2433 20.0236 5.08594 19.8295 5.08594H4.17056C3.97641 5.08594 3.819 5.2433 3.819 5.4375C3.819 6.4448 2.99953 7.26431 1.99219 7.26431C1.79803 7.26431 1.64062 7.42167 1.64062 7.61588V16.3842C1.64062 16.5784 1.79803 16.7357 1.99219 16.7357C2.99948 16.7357 3.819 17.5552 3.819 18.5625C3.819 18.7568 3.97641 18.9141 4.17056 18.9141H5.59884C5.793 18.9141 5.95041 18.7568 5.95041 18.5625C5.95041 18.3683 5.793 18.211 5.59884 18.211H4.4978C4.34217 17.0967 3.45802 16.2126 2.34375 16.057V7.94306C3.45802 7.78748 4.34217 6.90328 4.4978 5.78906H19.5023C19.6579 6.90333 20.542 7.78748 21.6563 7.94306V16.0569C20.542 16.2125 19.6579 17.0967 19.5023 18.2109H7.21359C7.01944 18.2109 6.86203 18.3683 6.86203 18.5625C6.86203 18.7567 7.01944 18.9141 7.21359 18.9141Z" fill="#EA5D26"/>
<path d="M18.0353 8.43056H16.6291C16.4349 8.43056 16.2775 8.58792 16.2775 8.78212V11.739C16.2696 11.7432 16.2618 11.7475 16.2539 11.752C15.9658 11.9188 15.9089 12.2462 15.8674 12.4853C15.8513 12.5781 15.8312 12.6937 15.8059 12.7374C15.7838 12.7756 15.6935 12.8499 15.6275 12.9043C15.4373 13.0609 15.1768 13.2754 15.1768 13.6188C15.1768 13.9621 15.4373 14.1766 15.6276 14.3332C15.6935 14.3875 15.7838 14.4619 15.806 14.5001C15.8313 14.5439 15.8513 14.6594 15.8674 14.7522C15.9089 14.9913 15.9658 15.3187 16.254 15.4855C16.3596 15.5467 16.4689 15.5692 16.5761 15.5691C16.7547 15.5691 16.9275 15.5066 17.0678 15.4558C17.1646 15.4207 17.2744 15.381 17.3323 15.381C17.3902 15.381 17.5 15.4207 17.5968 15.4558C17.8214 15.537 18.1289 15.6483 18.4106 15.4855C18.6988 15.3187 18.7557 14.9913 18.7972 14.7522C18.8133 14.6594 18.8333 14.5439 18.8586 14.5001C18.8807 14.462 18.9711 14.3876 19.0371 14.3332C19.2273 14.1766 19.4879 13.9621 19.4879 13.6188C19.4879 13.2754 19.2273 13.0609 19.0371 12.9043C18.9711 12.8499 18.8808 12.7756 18.8587 12.7374C18.8334 12.6937 18.8133 12.5782 18.7972 12.4853C18.7557 12.2462 18.6989 11.9188 18.4106 11.752C18.4028 11.7474 18.3949 11.7431 18.387 11.739V8.78212C18.3869 8.58792 18.2295 8.43056 18.0353 8.43056ZM17.6838 9.13368V11.7507C17.6536 11.7611 17.6245 11.7716 17.5967 11.7817C17.4999 11.8167 17.3901 11.8565 17.3322 11.8565C17.2743 11.8565 17.1646 11.8167 17.0678 11.7817C17.0399 11.7716 17.0108 11.7611 16.9806 11.7507V9.13368H17.6838ZM18.59 13.447C18.6486 13.4952 18.7416 13.5718 18.7763 13.6187C18.7416 13.6656 18.6486 13.7421 18.59 13.7903C18.4708 13.8885 18.3357 13.9998 18.2499 14.1479C18.1619 14.3001 18.1313 14.4764 18.1043 14.6318C18.0924 14.7003 18.074 14.8065 18.0533 14.8631C17.9954 14.8522 17.8986 14.8172 17.836 14.7945C17.6848 14.7398 17.5135 14.6778 17.3322 14.6778C17.1509 14.6778 16.9796 14.7398 16.8284 14.7945C16.7658 14.8172 16.669 14.8522 16.6112 14.8631C16.5905 14.8065 16.572 14.7003 16.5602 14.6318C16.5332 14.4763 16.5026 14.3001 16.4145 14.1479C16.3288 13.9998 16.1937 13.8885 16.0745 13.7903C16.0159 13.7421 15.9229 13.6656 15.8882 13.6187C15.9229 13.5718 16.0158 13.4953 16.0744 13.447C16.1937 13.3488 16.3288 13.2376 16.4145 13.0894C16.5025 12.9373 16.5331 12.761 16.5601 12.6055C16.572 12.537 16.5905 12.4308 16.6111 12.3742C16.669 12.3851 16.7658 12.4201 16.8284 12.4428C16.9796 12.4975 17.1509 12.5595 17.3322 12.5595C17.5134 12.5595 17.6848 12.4975 17.836 12.4428C17.8986 12.4201 17.9954 12.3851 18.0532 12.3742C18.0739 12.4308 18.0923 12.537 18.1042 12.6055C18.1312 12.761 18.1619 12.9373 18.2499 13.0894C18.3357 13.2375 18.4708 13.3488 18.59 13.447Z" fill="#EA5D26"/>
<path d="M4.86377 9.19589H13.2741C13.4683 9.19589 13.6257 9.03853 13.6257 8.84433C13.6257 8.65013 13.4683 8.49277 13.2741 8.49277H4.86377C4.66961 8.49277 4.51221 8.65013 4.51221 8.84433C4.51221 9.03853 4.66961 9.19589 4.86377 9.19589Z" fill="#EA5D26"/>
<path d="M4.86377 11.2692H13.2741C13.4683 11.2692 13.6257 11.1119 13.6257 10.9177C13.6257 10.7235 13.4683 10.5661 13.2741 10.5661H4.86377C4.66961 10.5661 4.51221 10.7235 4.51221 10.9177C4.51221 11.1119 4.66961 11.2692 4.86377 11.2692Z" fill="#EA5D26"/>
<path d="M13.2739 12.6808H11.6123C11.4181 12.6808 11.2607 12.8382 11.2607 13.0324C11.2607 13.2266 11.4181 13.3839 11.6123 13.3839H13.2739C13.468 13.3839 13.6254 13.2266 13.6254 13.0324C13.6254 12.8382 13.468 12.6808 13.2739 12.6808Z" fill="#EA5D26"/>
<path d="M4.86377 13.3839H9.958C10.1522 13.3839 10.3096 13.2266 10.3096 13.0324C10.3096 12.8382 10.1522 12.6808 9.958 12.6808H4.86377C4.66961 12.6808 4.51221 12.8382 4.51221 13.0324C4.51221 13.2266 4.66961 13.3839 4.86377 13.3839Z" fill="#EA5D26"/>
<path d="M4.86377 15.4987H13.2741C13.4683 15.4987 13.6257 15.3413 13.6257 15.1471C13.6257 14.9529 13.4683 14.7955 13.2741 14.7955H4.86377C4.66961 14.7955 4.51221 14.9529 4.51221 15.1471C4.51221 15.3413 4.66961 15.4987 4.86377 15.4987Z" fill="#EA5D26"/>
</g>
<defs>
<clipPath id="clip0_208_109">
<rect width="24" height="24" fill="white"/>
</clipPath>
</defs>
</svg>
