<svg width="21" height="16" viewBox="0 0 21 16" fill="none" xmlns="http://www.w3.org/2000/svg">
<path d="M5.9182 0.00709534H1.39697C0.982823 0.00709534 0.646973 0.342945 0.646973 0.757095V5.27832C0.646973 5.69247 0.982823 6.02832 1.39697 6.02832H5.9182C6.33235 6.02832 6.6682 5.69247 6.6682 5.27832V0.757095C6.6682 0.34287 6.33242 0.00709534 5.9182 0.00709534Z" fill="#EA5D26"/>
<path d="M19.8352 2.26767H9.38867C8.97452 2.26767 8.63867 2.60352 8.63867 3.01767C8.63867 3.43182 8.97452 3.76767 9.38867 3.76767H19.8352C20.2493 3.76767 20.5852 3.43182 20.5852 3.01767C20.5852 2.60352 20.2493 2.26767 19.8352 2.26767Z" fill="#EA5D26"/>
<path d="M5.9182 9.97166H1.39697C0.982823 9.97166 0.646973 10.3075 0.646973 10.7217V15.2429C0.646973 15.657 0.982823 15.9929 1.39697 15.9929H5.9182C6.33235 15.9929 6.6682 15.657 6.6682 15.2429V10.7217C6.6682 10.3075 6.33242 9.97166 5.9182 9.97166Z" fill="#EA5D26"/>
<path d="M19.8352 12.2323H9.38867C8.97452 12.2323 8.63867 12.5682 8.63867 12.9823C8.63867 13.3965 8.97452 13.7323 9.38867 13.7323H19.8352C20.2493 13.7323 20.5852 13.3965 20.5852 12.9823C20.5852 12.5682 20.2493 12.2323 19.8352 12.2323Z" fill="#EA5D26"/>
</svg>
