<svg width="16" height="24" viewBox="0 0 16 24" fill="none" xmlns="http://www.w3.org/2000/svg">
<path d="M5.6133 23.943C5.93078 24.0787 6.29992 23.9654 6.48536 23.6725L14.9229 10.2662C15.0595 10.0493 15.0678 9.77527 14.9441 9.55144C14.8205 9.32691 14.5843 9.1875 14.3282 9.1875H8.69702L10.7913 0.876145C10.8758 0.540379 10.7048 0.193598 10.3869 0.0569571C10.071 -0.0789804 9.69953 0.0349728 9.5148 0.327473L1.0773 13.7337C0.940658 13.9507 0.932408 14.2247 1.05602 14.4485C1.17963 14.673 1.41583 14.8125 1.67195 14.8125H7.30314L5.20886 23.1238C5.12439 23.4596 5.29535 23.8064 5.6133 23.943Z" fill="#EA5D26"/>
</svg>
