<svg width="30" height="30" viewBox="0 0 30 30" fill="none" xmlns="http://www.w3.org/2000/svg">
<path d="M6.89209 16.7915L7.79094 17.6745L10.1561 15.2668L11.0014 16.0973C12.1892 17.2641 13.6247 17.665 14.9342 17.0169L15.5228 17.595L16.0904 17.0172L15.6196 16.5547C15.7144 16.4796 15.7984 16.394 15.8931 16.2977C15.9877 16.2014 16.0823 16.1051 16.1557 16.0089L16.6265 16.4715L17.1836 15.9043L16.5951 15.3262C17.2308 14.0583 16.8157 12.7043 15.6814 11.59L13.8088 9.75049L12.3897 11.1951L11.7584 10.5749L11.2013 11.142L11.8326 11.7622L11.2965 12.3079L10.6652 11.6877L10.0975 12.2656L10.7289 12.8858L6.89209 16.7915ZM14.0139 11.3397L14.9769 12.2858C15.6832 12.9795 15.8912 13.7096 15.6641 14.4117L13.2886 12.0781L14.0139 11.3397ZM14.9944 15.4359C14.9103 15.5215 14.8157 15.6178 14.7314 15.6822L12.1954 13.1909L12.7315 12.6452L15.2568 15.126C15.1834 15.2221 15.089 15.3396 14.9944 15.4359ZM10.8604 14.5499L11.6277 13.7688L14.014 16.1129C13.2104 16.3958 12.4227 16.0846 11.7057 15.3803L10.8604 14.5499Z" fill="#E27C1D"/>
<path fill-rule="evenodd" clip-rule="evenodd" d="M23.024 14.4932L22.2691 15.3062C22.6896 15.479 22.9966 15.7681 23.1901 16.1551H21.4808L20.7426 16.9501H23.4001C23.4151 17.0701 23.4301 17.2201 23.4301 17.3551C23.4301 17.4751 23.4301 17.6101 23.4151 17.7151H20.0322L18.6001 19.2574V24.0001H19.8601V20.6251H21.0451C22.7101 20.6251 24.0151 19.9051 24.4951 18.5251H25.3201V17.7151H24.6601C24.6751 17.5951 24.6751 17.4751 24.6751 17.3401C24.6751 17.2051 24.6751 17.0701 24.6601 16.9501H25.3201V16.1551H24.4951C24.2443 15.3767 23.7242 14.8227 23.024 14.4932ZM19.8601 18.5251V19.6201H21.0451C22.0501 19.6201 22.8301 19.2901 23.2051 18.5251H19.8601Z" fill="#E27C1D"/>
<path d="M10.75 26.1875C10.1418 26.1875 9.54635 25.9401 9.11506 25.5099L2.17756 18.5724C1.74744 18.1412 1.5 17.5457 1.5 16.9375C1.5 16.3293 1.74744 15.7338 2.17756 15.3026L12.5838 4.89631C13.0151 4.46619 13.6106 4.21875 14.2188 4.21875H21.1563C21.3054 4.21875 21.4465 4.23609 21.5852 4.27078C22.6374 4.4315 23.4688 5.40737 23.4688 6.53125V13.4688C23.4688 14.0769 23.2213 14.6724 22.7912 15.1037L12.3849 25.5099C11.9537 25.9401 11.3582 26.1875 10.75 26.1875ZM14.2188 5.375C13.9147 5.375 13.6175 5.49872 13.4013 5.71378L2.99503 16.12C2.77997 16.3363 2.65625 16.6334 2.65625 16.9375C2.65625 17.2416 2.77997 17.5387 2.99503 17.755L9.93253 24.6925C10.3638 25.1238 11.135 25.1238 11.5663 24.6925L21.9726 14.2862C22.1888 14.07 22.3125 13.7728 22.3125 13.4688V6.53125C22.3125 5.97278 21.902 5.48716 21.3563 5.40275C21.2569 5.37963 21.2118 5.375 21.1563 5.375H14.2188Z" fill="#E27C1D"/>
<path d="M26.8566 28.5002H16.6122C15.982 28.5002 15.3681 28.2562 14.9264 27.8284C14.4766 27.3937 14.2188 26.7947 14.2188 26.1877V22.2796C14.2188 22.1258 14.28 21.979 14.3876 21.8703L21.9726 14.2853C22.1888 14.0702 22.3125 13.7731 22.3125 13.469V6.53146C22.3125 5.97299 21.902 5.48737 21.3563 5.40296C21.0776 5.35902 20.8718 5.12199 20.8672 4.84102C20.8626 4.56005 21.0614 4.31493 21.3389 4.2629C22.0905 4.12415 22.8721 4.35771 23.4202 4.89074L28.5401 9.80249C28.9922 10.2396 29.25 10.8385 29.25 11.4455V26.1877C29.25 26.7947 28.9922 27.3937 28.5424 27.8284C28.1007 28.2562 27.4867 28.5002 26.8566 28.5002ZM15.375 22.5189V26.1877C15.375 26.4837 15.5045 26.7797 15.7311 26.9982C15.9577 27.2179 16.2792 27.344 16.6122 27.344H26.8566C27.1896 27.344 27.5098 27.2179 27.7376 26.9982C27.9643 26.7797 28.0938 26.4837 28.0938 26.1877V11.4455C28.0938 11.1495 27.9643 10.8535 27.7376 10.635L23.4688 6.53955V13.469C23.4688 14.0771 23.2213 14.6726 22.7912 15.1039L15.375 22.5189Z" fill="#E27C1D"/>
<path d="M19.4219 10C18.4657 10 17.6875 9.22184 17.6875 8.26562C17.6875 7.30941 18.4657 6.53125 19.4219 6.53125C20.3781 6.53125 21.1563 7.30941 21.1563 8.26562C21.1563 9.22184 20.3781 10 19.4219 10ZM19.4219 7.6875C19.1028 7.6875 18.8438 7.9465 18.8438 8.26562C18.8438 8.58475 19.1028 8.84375 19.4219 8.84375C19.741 8.84375 20 8.58475 20 8.26562C20 7.9465 19.741 7.6875 19.4219 7.6875Z" fill="#E27C1D"/>
<path d="M26.3594 8.84375C26.0403 8.84375 25.7813 8.58475 25.7813 8.26562V4.79688C25.7813 3.20356 24.4839 1.90625 22.8906 1.90625C21.2973 1.90625 20 3.20356 20 4.79688V7.10938C20 7.4285 19.741 7.6875 19.4219 7.6875C19.1028 7.6875 18.8438 7.4285 18.8438 7.10938V4.79688C18.8438 2.56531 20.6591 0.75 22.8906 0.75C25.1222 0.75 26.9375 2.56531 26.9375 4.79688V8.26562C26.9375 8.58475 26.6785 8.84375 26.3594 8.84375Z" fill="#E27C1D"/>
</svg>
