<svg width="17" height="17" viewBox="0 0 17 17" fill="none" xmlns="http://www.w3.org/2000/svg">
<path d="M14.5 13.1299H12.5V16.1299H4.5V13.1299H2.5C1.96957 13.1299 1.46089 12.9192 1.08582 12.5441C0.710743 12.169 0.5 11.6603 0.5 11.1299V6.12988C0.5 5.59945 0.710743 5.09074 1.08582 4.71567C1.46089 4.34059 1.96957 4.12988 2.5 4.12988H4.5V0.129883H12.5V4.12988H14.5C15.0304 4.12988 15.5391 4.34059 15.9142 4.71567C16.2893 5.09074 16.5 5.59945 16.5 6.12988V11.1299C16.5 11.6603 16.2893 12.169 15.9142 12.5441C15.5391 12.9192 15.0304 13.1299 14.5 13.1299ZM6.5 14.1299H10.5V10.1299H6.5V14.1299ZM10.5 2.12988H6.5V4.12988H10.5V2.12988ZM14.5 6.12988H2.5V11.1299H4.5V8.12988H12.5V11.1299H14.5V6.12988Z" fill="#333333"/>
</svg>
