<svg width="15" height="17" viewBox="0 0 15 17" fill="none" xmlns="http://www.w3.org/2000/svg">
<path d="M11.5 6.12988C10.8227 6.12829 10.1664 5.89505 9.64001 5.46889L6.42004 7.47888C6.52637 7.90569 6.52637 8.35207 6.42004 8.77888L9.64001 10.7889C10.1664 10.363 10.8229 10.1304 11.5 10.1299C12.0933 10.1299 12.6734 10.3058 13.1667 10.6355C13.6601 10.9651 14.0445 11.4336 14.2716 11.9818C14.4987 12.53 14.5581 13.1332 14.4424 13.7151C14.3266 14.2971 14.0409 14.8316 13.6213 15.2512C13.2018 15.6708 12.6673 15.9565 12.0853 16.0722C11.5034 16.188 10.9001 16.1286 10.3519 15.9015C9.80375 15.6745 9.33526 15.2899 9.00562 14.7966C8.67597 14.3033 8.5 13.7232 8.5 13.1299C8.50276 12.9112 8.52615 12.6932 8.56995 12.4789L5.35999 10.4689C4.91901 10.8231 4.38694 11.0454 3.82507 11.1101C3.26321 11.1749 2.69445 11.0796 2.18445 10.835C1.67445 10.5905 1.24395 10.2068 0.942627 9.72818C0.6413 9.24954 0.481445 8.69547 0.481445 8.12988C0.481445 7.56429 0.6413 7.01022 0.942627 6.53158C1.24395 6.05295 1.67445 5.66924 2.18445 5.42473C2.69445 5.18021 3.26321 5.08484 3.82507 5.14963C4.38694 5.21441 4.91901 5.43671 5.35999 5.79088L8.56995 3.78088C8.52616 3.56657 8.50277 3.3486 8.5 3.12988C8.5 2.53654 8.67597 1.95651 9.00562 1.46316C9.33526 0.969816 9.80375 0.585307 10.3519 0.358244C10.9001 0.131181 11.5034 0.0717732 12.0853 0.187529C12.6673 0.303284 13.2018 0.589001 13.6213 1.00856C14.0409 1.42812 14.3266 1.96267 14.4424 2.54462C14.5581 3.12656 14.4987 3.72976 14.2716 4.27794C14.0445 4.82612 13.6601 5.29465 13.1667 5.6243C12.6734 5.95394 12.0933 6.12988 11.5 6.12988ZM11.5 14.1299C11.6978 14.1299 11.8911 14.0712 12.0555 13.9613C12.22 13.8515 12.3481 13.6953 12.4238 13.5126C12.4995 13.3298 12.5194 13.1288 12.4808 12.9348C12.4422 12.7408 12.347 12.5626 12.2072 12.4228C12.0673 12.2829 11.889 12.1877 11.6951 12.1491C11.5011 12.1105 11.3 12.1303 11.1173 12.206C10.9346 12.2817 10.7785 12.4099 10.6686 12.5743C10.5587 12.7388 10.5 12.9321 10.5 13.1299C10.5 13.3951 10.6053 13.6495 10.7928 13.837C10.9804 14.0245 11.2348 14.1299 11.5 14.1299ZM3.5 7.12988C3.30222 7.12988 3.10891 7.18853 2.94446 7.29841C2.78001 7.4083 2.65186 7.56446 2.57617 7.74719C2.50048 7.92992 2.48058 8.13098 2.51917 8.32496C2.55775 8.51895 2.65299 8.69714 2.79285 8.83699C2.9327 8.97684 3.11095 9.07208 3.30493 9.11067C3.49891 9.14926 3.69996 9.12944 3.88269 9.05375C4.06542 8.97807 4.22154 8.8499 4.33142 8.68545C4.4413 8.521 4.5 8.32766 4.5 8.12988C4.5 7.86466 4.39469 7.61031 4.20715 7.42277C4.01962 7.23524 3.76522 7.12988 3.5 7.12988ZM11.5 2.12988C11.3022 2.12988 11.1089 2.18853 10.9445 2.29841C10.78 2.4083 10.6519 2.56446 10.5762 2.74719C10.5005 2.92992 10.4806 3.13098 10.5192 3.32496C10.5578 3.51895 10.653 3.69714 10.7928 3.83699C10.9327 3.97684 11.111 4.07209 11.3049 4.11067C11.4989 4.14926 11.7 4.12944 11.8827 4.05376C12.0654 3.97807 12.2215 3.8499 12.3314 3.68545C12.4413 3.521 12.5 3.32766 12.5 3.12988C12.5 2.86466 12.3947 2.61031 12.2072 2.42277C12.0196 2.23524 11.7652 2.12988 11.5 2.12988Z" fill="#333333"/>
</svg>
