<svg width="30" height="30" viewBox="0 0 30 30" fill="none" xmlns="http://www.w3.org/2000/svg">
<g clip-path="url(#clip0_211_617)">
<path d="M21.1452 14.334C17.3885 14.334 14.3433 17.3794 14.3433 21.1362C14.3433 24.8929 17.3885 27.9384 21.1452 27.9384C24.902 27.9384 27.9474 24.8929 27.9474 21.1362C27.9431 17.3814 24.9003 14.3383 21.1452 14.334ZM21.1452 26.9591C17.9295 26.9591 15.3226 24.3521 15.3226 21.1362C15.3226 17.9203 17.9295 15.3133 21.1452 15.3133C24.3612 15.3133 26.9681 17.9203 26.9681 21.1362C26.9646 24.3507 24.3597 26.9555 21.1452 26.9591Z" fill="#E27C1D"/>
<path d="M23.6022 21.1774H21.3089V17.9779C21.3089 17.7075 21.0896 17.4883 20.8192 17.4883C20.5488 17.4883 20.3296 17.7075 20.3296 17.9779V21.6629C20.3296 21.9333 20.5242 22.1567 20.7948 22.1567H23.6024C23.8728 22.1567 24.0921 21.9374 24.0921 21.667C24.0921 21.3966 23.8728 21.1774 23.6024 21.1774H23.6022Z" fill="#E27C1D"/>
<path d="M21.4925 12.2887V2.69425C21.4899 1.20642 20.2837 0.00143451 18.7959 0H2.70353C1.21618 0.0016736 0.0109509 1.2069 0.00927734 2.69425V21.7699C0.00927734 23.2553 1.21785 24.4823 2.70353 24.4823H12.9404C14.2975 27.8202 17.5423 30.0023 21.1453 29.9999C26.0279 29.9999 30.0013 26.0232 30.0013 21.1406C30.0013 16.3737 26.2053 12.4704 21.4925 12.2887ZM0.988569 21.7699V2.69425C0.989765 1.74747 1.75675 0.980248 2.70353 0.979292H3.31439V23.503H2.70353C1.7534 23.4932 0.98833 22.72 0.988569 21.7699ZM4.29368 23.503V0.979292H18.7959C19.7431 0.980248 20.5111 1.74699 20.5132 2.69425V12.3043C19.7412 12.3602 18.9797 12.5175 18.2486 12.7722V3.67856C18.2443 3.40481 18.0222 3.18461 17.7484 3.1827H6.50641C6.2329 3.18461 6.01127 3.40505 6.00744 3.67856V17.3836C6.01198 17.6555 6.23457 17.8733 6.50641 17.8721H12.9139C12.6086 18.6362 12.4142 19.44 12.3365 20.2591H6.50641C6.23601 20.2591 6.01677 20.4783 6.01677 20.7487C6.01677 21.0192 6.23601 21.2384 6.50641 21.2384H12.2918C12.3018 22.0035 12.408 22.7642 12.6074 23.503H4.29368ZM13.3751 16.8928H6.98673V4.16199H17.2693V13.1812C15.6218 13.9905 14.2626 15.2861 13.3751 16.8928ZM21.1453 29.0115C16.7959 29.0115 13.2701 25.4855 13.2701 21.1361C13.2701 16.7866 16.7959 13.2606 21.1453 13.2606C25.495 13.2606 29.0208 16.7866 29.0208 21.1361C29.016 25.4836 25.4929 29.0065 21.1453 29.0115Z" fill="#E27C1D"/>
</g>
<defs>
<clipPath id="clip0_211_617">
<rect width="30" height="30" fill="white"/>
</clipPath>
</defs>
</svg>
